<svg width="32" height="32" viewBox="0 0 32 32" fill="none" xmlns="http://www.w3.org/2000/svg">
<rect x="9" y="9" width="14" height="14" rx="2" fill="#261F0F"/>
<path d="M21.3135 15.106C21.4832 14.7863 21.5713 14.4333 21.5713 14.0694C21.5713 13.1252 20.953 12.2713 20.0444 11.925C19.7007 11.2487 19.0223 10.7739 18.2494 10.6521C17.9872 10.255 17.5194 10 17.0119 10C16.6183 10 16.2622 10.1488 16 10.3881C15.7373 10.1492 15.3812 10 14.9881 10C14.4802 10 14.0132 10.255 13.7506 10.6521C12.9777 10.7743 12.2993 11.2487 11.9561 11.925C11.047 12.2709 10.4287 13.1252 10.4287 14.0694C10.4287 14.4333 10.5173 14.7859 10.6869 15.106C10.2466 15.5344 10 16.1052 10 16.7171C10 17.286 10.2221 17.8338 10.6166 18.2547C10.5631 18.4472 10.536 18.6452 10.536 18.8459C10.536 20.1188 11.624 21.1543 12.9617 21.1543C13.045 21.1543 13.1287 21.148 13.2119 21.1398C13.5035 21.649 14.0671 22 14.7219 22C15.2312 22 15.6844 21.7864 16 21.4537C16.3156 21.7864 16.7693 22 17.2781 22C17.9329 22 18.4965 21.649 18.7881 21.1398C18.8713 21.148 18.955 21.1543 19.0383 21.1543C20.376 21.1543 21.464 20.1188 21.464 18.8459C21.464 18.6456 21.4369 18.4476 21.383 18.2551C21.7779 17.8342 22 17.2864 22 16.7175C22.0004 16.1052 21.7538 15.5344 21.3135 15.106ZM19.0383 20.373C19.0258 20.373 19.0134 20.369 19.0009 20.3687C18.9991 20.1543 18.8015 19.9809 18.5562 19.9809C18.31 19.9809 18.111 20.1555 18.111 20.3714C18.111 20.8384 17.7371 21.2187 17.2781 21.2187C16.8191 21.2187 16.4452 20.8388 16.4452 20.3714V13.93C16.4452 13.921 16.4398 13.9132 16.4394 13.9046C16.4398 13.8952 16.4452 13.8878 16.4452 13.8788C16.4452 13.5747 16.7274 13.3275 17.0737 13.3275C17.3199 13.3275 17.5189 13.1526 17.5189 12.937C17.5189 12.7215 17.3199 12.5466 17.0737 12.5466C16.2364 12.5466 15.5548 13.1444 15.5548 13.8788C15.5548 13.8878 15.5602 13.8956 15.5606 13.9042C15.5602 13.9132 15.5548 13.921 15.5548 13.93V14.9542C15.3625 14.8768 15.1511 14.8312 14.9258 14.8312C14.6801 14.8312 14.4806 15.0061 14.4806 15.2216C14.4806 15.4372 14.6801 15.6121 14.9258 15.6121C15.2726 15.6121 15.5548 15.8592 15.5548 16.1634V20.3714C15.5548 20.8384 15.1813 21.2187 14.7219 21.2187C14.2625 21.2187 13.889 20.8384 13.889 20.3714C13.889 20.1555 13.6896 19.9809 13.4438 19.9809C13.199 19.9809 13.0013 20.1543 12.9991 20.3687C12.9866 20.369 12.9742 20.373 12.9617 20.373C12.115 20.373 11.4263 19.6877 11.4263 18.8455C11.4263 18.8103 11.4339 18.7764 11.4361 18.7416C11.5492 18.7686 11.6587 18.785 11.7598 18.785C11.9338 18.785 12.0887 18.7522 12.2161 18.7092C12.4458 18.6319 12.5602 18.4058 12.4716 18.2043C12.3834 18.0025 12.1244 17.9041 11.8964 17.9802C11.7869 18.0165 11.6436 18.029 11.4156 17.8646C11.0818 17.5741 10.8899 17.1567 10.8899 16.7175C10.8899 16.2341 11.1245 15.7753 11.5167 15.4879C11.6373 15.4118 11.7558 15.3571 11.8684 15.3282C12.1043 15.2677 12.2396 15.0506 12.1706 14.8437C12.1012 14.6363 11.8524 14.5176 11.6182 14.5785C11.5568 14.5941 11.4962 14.6207 11.4352 14.643C11.3609 14.4618 11.3181 14.2693 11.3181 14.0702C11.3181 13.6773 11.4753 13.3127 11.7317 13.0366C11.7695 13.3216 11.8853 13.5965 12.0812 13.8597C12.1666 13.9741 12.3091 14.0366 12.4542 14.0366C12.5379 14.0366 12.6225 14.0159 12.6973 13.9729C12.903 13.8546 12.9608 13.6129 12.8264 13.4325C12.5789 13.1006 12.5424 12.7637 12.7111 12.3713L12.7155 12.3607C12.9506 11.7774 13.5102 11.401 14.1405 11.401C14.3863 11.401 14.5857 11.226 14.5857 11.0105C14.5857 10.9968 14.5786 10.9851 14.5768 10.9719C14.6823 10.8551 14.8279 10.7825 14.9872 10.7825C15.2997 10.7825 15.5539 11.0468 15.5539 11.3721C15.5539 11.5876 15.7534 11.7625 15.9991 11.7625C16.2448 11.7625 16.4443 11.5876 16.4443 11.3721C16.4443 11.0468 16.6985 10.7825 17.011 10.7825C17.1704 10.7825 17.3164 10.8551 17.4214 10.9719C17.4196 10.9851 17.4125 10.9968 17.4125 11.0109C17.4125 11.2264 17.6115 11.4014 17.8577 11.4014C18.4881 11.4014 19.0472 11.7782 19.2827 12.3611L19.288 12.374C19.3935 12.6208 19.418 12.8441 19.3619 13.0561C19.3058 13.2662 19.455 13.4763 19.6945 13.5251C19.7283 13.5321 19.7621 13.5352 19.796 13.5352C19.9981 13.5352 20.181 13.4134 20.2291 13.2334C20.2465 13.1674 20.2549 13.1003 20.2634 13.0335C20.5216 13.3099 20.6796 13.6762 20.6796 14.0705C20.6796 14.2705 20.6369 14.4626 20.5625 14.6433C20.5016 14.6211 20.441 14.5949 20.38 14.5789C20.1445 14.5184 19.8966 14.6371 19.8276 14.844C19.7586 15.051 19.8939 15.2677 20.1298 15.3286C20.2434 15.3575 20.3613 15.4122 20.482 15.4887C20.8742 15.7765 21.1088 16.2349 21.1088 16.7183C21.1088 17.1579 20.9165 17.5749 20.583 17.8654C20.3547 18.0302 20.2113 18.0181 20.1022 17.981C19.8716 17.9049 19.6152 18.0044 19.5266 18.2051C19.4385 18.4066 19.5533 18.6327 19.7822 18.71C19.9099 18.7529 20.0648 18.7857 20.2389 18.7857C20.34 18.7857 20.4495 18.7693 20.5625 18.7424C20.5648 18.7771 20.5723 18.8115 20.5723 18.8463C20.5737 19.6877 19.8854 20.373 19.0383 20.373Z" fill="url(#paint0_linear_176_44)"/>
<path d="M30.4814 14.4814C29.7671 14.4814 29.1705 14.9788 29.0094 15.6444H23.3195V13.9136H27.3209C27.5175 13.9136 27.6764 13.7543 27.6764 13.558C27.6764 13.3618 27.5175 13.2025 27.3209 13.2025H23.3195V11.472H25.989C26.1856 11.472 26.3445 11.3127 26.3445 11.1164C26.3445 10.9202 26.1856 10.7609 25.989 10.7609H23.3195V10.3908C23.3195 9.44782 22.5522 8.68018 21.6089 8.68018H21.2391V6.01067C21.2391 5.8144 21.0802 5.65511 20.8836 5.65511C20.6869 5.65511 20.528 5.8144 20.528 6.01067V8.68018H18.7972V4.67911C18.7972 4.48284 18.6382 4.32356 18.4416 4.32356C18.245 4.32356 18.086 4.48284 18.086 4.67911V8.68018H16.3556V2.99022C17.0208 2.82916 17.5186 2.23253 17.5186 1.51822C17.5186 0.681244 16.837 0 16 0C15.1627 0 14.4814 0.681244 14.4814 1.51858C14.4814 2.23289 14.9788 2.82951 15.6444 2.99058V8.68053H13.9136V4.67911C13.9136 4.48284 13.7543 4.32356 13.558 4.32356C13.3618 4.32356 13.2025 4.48284 13.2025 4.67911V8.68018H11.472V6.01067C11.472 5.8144 11.3127 5.65511 11.1164 5.65511C10.9202 5.65511 10.7609 5.8144 10.7609 6.01067V8.68018H10.3908C9.44782 8.68018 8.68018 9.44747 8.68018 10.3908V10.7609H6.01067C5.8144 10.7609 5.65511 10.9202 5.65511 11.1164C5.65511 11.3127 5.8144 11.472 6.01067 11.472H8.68018V13.2025H4.67911C4.48284 13.2025 4.32356 13.3618 4.32356 13.558C4.32356 13.7543 4.48284 13.9136 4.67911 13.9136H8.68018V15.6444H2.99022C2.82916 14.9788 2.23253 14.4814 1.51822 14.4814C0.681244 14.4814 0 15.1627 0 16C0 16.837 0.681244 17.5186 1.51858 17.5186C2.23289 17.5186 2.82951 17.0212 2.99058 16.3556H8.68053V18.086H4.67911C4.48284 18.086 4.32356 18.245 4.32356 18.4416C4.32356 18.6382 4.48284 18.7972 4.67911 18.7972H8.68018V20.528H6.01067C5.8144 20.528 5.65511 20.6869 5.65511 20.8836C5.65511 21.0802 5.8144 21.2391 6.01067 21.2391H8.68018V21.6089C8.68018 22.5518 9.44747 23.3195 10.3908 23.3195H10.7609V25.989C10.7609 26.1856 10.9202 26.3445 11.1164 26.3445C11.3127 26.3445 11.472 26.1856 11.472 25.989V23.3195H13.2025V27.3209C13.2025 27.5175 13.3618 27.6764 13.558 27.6764C13.7543 27.6764 13.9136 27.5175 13.9136 27.3209V23.3195H15.6444V29.0098C14.9788 29.1708 14.4814 29.7675 14.4814 30.4818C14.4814 31.3188 15.1627 32 16 32C16.837 32 17.5186 31.3188 17.5186 30.4814C17.5186 29.7671 17.0212 29.1705 16.3556 29.0094V23.3195H18.086V27.3209C18.086 27.5175 18.245 27.6764 18.4416 27.6764C18.6382 27.6764 18.7972 27.5175 18.7972 27.3209V23.3195H20.528V25.989C20.528 26.1856 20.6869 26.3445 20.8836 26.3445C21.0802 26.3445 21.2391 26.1856 21.2391 25.989V23.3195H21.6089C22.5518 23.3195 23.3195 22.5522 23.3195 21.6089V21.2391H25.989C26.1856 21.2391 26.3445 21.0802 26.3445 20.8836C26.3445 20.6869 26.1856 20.528 25.989 20.528H23.3195V18.7972H27.3209C27.5175 18.7972 27.6764 18.6382 27.6764 18.4416C27.6764 18.245 27.5175 18.086 27.3209 18.086H23.3195V16.3556H29.0098C29.1708 17.0208 29.7675 17.5186 30.4818 17.5186C31.3188 17.5186 32 16.837 32 16C32 15.1627 31.3188 14.4814 30.4814 14.4814ZM15.1925 1.51858C15.1925 1.07342 15.5548 0.711111 16 0.711111C16.4452 0.711111 16.8075 1.07342 16.8075 1.51858C16.8075 1.96373 16.4452 2.32569 16 2.32569C15.5548 2.32569 15.1925 1.96338 15.1925 1.51858ZM1.51858 16.8075C1.07342 16.8075 0.711111 16.4452 0.711111 16C0.711111 15.5548 1.07342 15.1925 1.51858 15.1925C1.96373 15.1925 2.32569 15.5548 2.32569 16C2.32569 16.4452 1.96338 16.8075 1.51858 16.8075ZM16.8075 30.4814C16.8075 30.9266 16.4452 31.2889 16 31.2889C15.5548 31.2889 15.1925 30.9266 15.1925 30.4814C15.1925 30.0363 15.5548 29.674 16 29.674C16.4452 29.674 16.8075 30.0366 16.8075 30.4814ZM22.6084 21.6089C22.6084 22.16 22.16 22.6084 21.6089 22.6084H10.3908C9.83965 22.6084 9.39129 22.16 9.39129 21.6089V10.3908C9.39129 9.83965 9.83965 9.39129 10.3908 9.39129H21.6089C22.16 9.39129 22.6084 9.83965 22.6084 10.3908V21.6089ZM30.4814 16.8075C30.0363 16.8075 29.674 16.4452 29.674 16C29.674 15.5548 30.0363 15.1925 30.4814 15.1925C30.9266 15.1925 31.2889 15.5548 31.2889 16C31.2889 16.4452 30.9266 16.8075 30.4814 16.8075Z" fill="url(#paint1_linear_176_44)"/>
<defs>
<linearGradient id="paint0_linear_176_44" x1="16" y1="10" x2="16" y2="22" gradientUnits="userSpaceOnUse">
<stop offset="0.26" stop-color="#FFDB6E"/>
<stop offset="1" stop-color="#FFBC5E"/>
</linearGradient>
<linearGradient id="paint1_linear_176_44" x1="16" y1="0" x2="16" y2="32" gradientUnits="userSpaceOnUse">
<stop offset="0.26" stop-color="#FFDB6E"/>
<stop offset="1" stop-color="#FFBC5E"/>
</linearGradient>
</defs>
</svg>
